<?xml version="1.0" encoding="UTF-8" standalone="no"?>
<!DOCTYPE svg PUBLIC "-//W3C//DTD SVG 1.1//EN"
 "http://www.w3.org/Graphics/SVG/1.1/DTD/svg11.dtd">
<!-- Generated by graphviz version 2.47.0 (20210316.0004)
 -->
<!-- Title: dependencies Pages: 1 -->
<svg width="504pt" height="287pt"
 viewBox="0.00 0.00 504.00 287.00" xmlns="http://www.w3.org/2000/svg" xmlns:xlink="http://www.w3.org/1999/xlink">
<g id="graph0" class="graph" transform="scale(1 1) rotate(0) translate(4 283)">
<title>dependencies</title>
<polygon fill="white" stroke="transparent" points="-4,4 -4,-283 500,-283 500,4 -4,4"/>
<text text-anchor="start" x="227.01" y="-42.4" font-family="Times-12" font-weight="bold" font-size="14.00">Legend</text>
<polygon fill="#ffffb3" stroke="transparent" points="14,-10 14,-30 34,-30 34,-10 14,-10"/>
<text text-anchor="start" x="37.63" y="-15.4" font-family="Times-12" font-size="14.00"> &#160;Declarations</text>
<polygon fill="#8dd3c7" stroke="transparent" points="127,-10 127,-30 147,-30 147,-10 127,-10"/>
<text text-anchor="start" x="150.73" y="-15.4" font-family="Times-12" font-size="14.00"> &#160;Module</text>
<polygon fill="#80b1d3" stroke="transparent" points="213,-10 213,-30 233,-30 233,-10 213,-10"/>
<text text-anchor="start" x="236.78" y="-15.4" font-family="Times-12" font-size="14.00"> &#160;Bootstrap</text>
<polygon fill="#fdb462" stroke="transparent" points="310,-10 310,-30 330,-30 330,-10 310,-10"/>
<text text-anchor="start" x="333.67" y="-15.4" font-family="Times-12" font-size="14.00"> &#160;Providers</text>
<polygon fill="#fb8072" stroke="transparent" points="406,-10 406,-30 426,-30 426,-10 406,-10"/>
<text text-anchor="start" x="429.73" y="-15.4" font-family="Times-12" font-size="14.00"> &#160;Exports</text>
<g id="clust1" class="cluster">
<title>cluster_AppModule</title>
<polygon fill="none" stroke="black" stroke-dasharray="1,5" points="112,-146 112,-271 368,-271 368,-146 112,-146"/>
</g>
<g id="clust3" class="cluster">
<title>cluster_AppModule_imports</title>
<polygon fill="none" stroke="black" points="258,-154 258,-206 360,-206 360,-154 258,-154"/>
</g>
<g id="clust6" class="cluster">
<title>cluster_AppModule_providers</title>
<polygon fill="none" stroke="black" points="120,-154 120,-206 250,-206 250,-154 120,-154"/>
</g>
<g id="clust7" class="cluster">
<title>cluster_CoinModule</title>
<polygon fill="none" stroke="black" stroke-dasharray="1,5" points="234,-70 234,-138 384,-138 384,-70 234,-70"/>
</g>
<g id="clust12" class="cluster">
<title>cluster_CoinModule_providers</title>
<polygon fill="none" stroke="black" points="242,-78 242,-130 376,-130 376,-78 242,-78"/>
</g>
<!-- CoinModule -->
<g id="node1" class="node">
<title>CoinModule</title>
<polygon fill="#8dd3c7" stroke="black" points="352.28,-198 349.28,-202 328.28,-202 325.28,-198 265.72,-198 265.72,-162 352.28,-162 352.28,-198"/>
<text text-anchor="middle" x="309" y="-175.8" font-family="Times,serif" font-size="14.00">CoinModule</text>
</g>
<!-- AppModule -->
<g id="node2" class="node">
<title>AppModule</title>
<polygon fill="#8dd3c7" stroke="black" points="288.66,-263 285.66,-267 264.66,-267 261.66,-263 205.34,-263 205.34,-227 288.66,-227 288.66,-263"/>
<text text-anchor="middle" x="247" y="-240.8" font-family="Times,serif" font-size="14.00">AppModule</text>
</g>
<!-- CoinModule&#45;&gt;AppModule -->
<g id="edge1" class="edge">
<title>CoinModule&#45;&gt;AppModule</title>
<path fill="none" stroke="black" d="M277.22,-198.11C277.22,-198.11 277.22,-216.99 277.22,-216.99"/>
<polygon fill="black" stroke="black" points="273.72,-216.99 277.22,-226.99 280.72,-216.99 273.72,-216.99"/>
</g>
<!-- AppService -->
<g id="node3" class="node">
<title>AppService</title>
<ellipse fill="#fdb462" stroke="black" cx="185" cy="-180" rx="56.74" ry="18"/>
<text text-anchor="middle" x="185" y="-175.8" font-family="Times,serif" font-size="14.00">AppService</text>
</g>
<!-- AppService&#45;&gt;AppModule -->
<g id="edge2" class="edge">
<title>AppService&#45;&gt;AppModule</title>
<path fill="none" stroke="black" d="M223.4,-193.47C223.4,-193.47 223.4,-216.86 223.4,-216.86"/>
<polygon fill="black" stroke="black" points="219.9,-216.86 223.4,-226.86 226.9,-216.86 219.9,-216.86"/>
</g>
<!-- CoinService -->
<g id="node4" class="node">
<title>CoinService</title>
<ellipse fill="#fdb462" stroke="black" cx="309" cy="-104" rx="58.55" ry="18"/>
<text text-anchor="middle" x="309" y="-99.8" font-family="Times,serif" font-size="14.00">CoinService</text>
</g>
<!-- CoinService&#45;&gt;CoinModule -->
<g id="edge3" class="edge">
<title>CoinService&#45;&gt;CoinModule</title>
<path fill="none" stroke="black" d="M309,-122.01C309,-122.01 309,-151.85 309,-151.85"/>
<polygon fill="black" stroke="black" points="305.5,-151.85 309,-161.85 312.5,-151.85 305.5,-151.85"/>
</g>
</g>
</svg>
