<?xml version="1.0" encoding="UTF-8" standalone="no"?>
<!DOCTYPE svg PUBLIC "-//W3C//DTD SVG 1.1//EN"
 "http://www.w3.org/Graphics/SVG/1.1/DTD/svg11.dtd">
<!-- Generated by graphviz version 2.47.0 (20210316.0004)
 -->
<!-- Title: dependencies Pages: 1 -->
<svg width="794pt" height="284pt"
 viewBox="0.00 0.00 794.00 284.00" xmlns="http://www.w3.org/2000/svg" xmlns:xlink="http://www.w3.org/1999/xlink">
<g id="graph0" class="graph" transform="scale(1 1) rotate(0) translate(4 280)">
<title>dependencies</title>
<polygon fill="white" stroke="transparent" points="-4,4 -4,-280 790,-280 790,4 -4,4"/>
<text text-anchor="start" x="372.01" y="-42.4" font-family="Times-12" font-weight="bold" font-size="14.00">Legend</text>
<polygon fill="#ffffb3" stroke="transparent" points="159,-10 159,-30 179,-30 179,-10 159,-10"/>
<text text-anchor="start" x="182.63" y="-15.4" font-family="Times-12" font-size="14.00"> &#160;Declarations</text>
<polygon fill="#8dd3c7" stroke="transparent" points="272,-10 272,-30 292,-30 292,-10 272,-10"/>
<text text-anchor="start" x="295.73" y="-15.4" font-family="Times-12" font-size="14.00"> &#160;Module</text>
<polygon fill="#80b1d3" stroke="transparent" points="358,-10 358,-30 378,-30 378,-10 358,-10"/>
<text text-anchor="start" x="381.78" y="-15.4" font-family="Times-12" font-size="14.00"> &#160;Bootstrap</text>
<polygon fill="#fdb462" stroke="transparent" points="455,-10 455,-30 475,-30 475,-10 455,-10"/>
<text text-anchor="start" x="478.67" y="-15.4" font-family="Times-12" font-size="14.00"> &#160;Providers</text>
<polygon fill="#fb8072" stroke="transparent" points="551,-10 551,-30 571,-30 571,-10 551,-10"/>
<text text-anchor="start" x="574.73" y="-15.4" font-family="Times-12" font-size="14.00"> &#160;Exports</text>
<g id="clust1" class="cluster">
<title>cluster_CommonModule</title>
<polygon fill="none" stroke="black" stroke-dasharray="1,5" points="8,-70 8,-268 778,-268 778,-70 8,-70"/>
</g>
<g id="clust4" class="cluster">
<title>cluster_CommonModule_exports</title>
<polygon fill="none" stroke="black" points="161,-208 161,-260 559,-260 559,-208 161,-208"/>
</g>
<g id="clust6" class="cluster">
<title>cluster_CommonModule_providers</title>
<polygon fill="none" stroke="black" points="16,-78 16,-130 770,-130 770,-78 16,-78"/>
</g>
<!-- CloudinaryService  -->
<g id="node1" class="node">
<title>CloudinaryService </title>
<polygon fill="#fb8072" stroke="black" points="551.47,-252 426.53,-252 426.53,-216 551.47,-216 551.47,-252"/>
<text text-anchor="middle" x="489" y="-229.8" font-family="Times,serif" font-size="14.00">CloudinaryService </text>
</g>
<!-- PaginationService  -->
<g id="node2" class="node">
<title>PaginationService </title>
<polygon fill="#fb8072" stroke="black" points="408.86,-252 287.14,-252 287.14,-216 408.86,-216 408.86,-252"/>
<text text-anchor="middle" x="348" y="-229.8" font-family="Times,serif" font-size="14.00">PaginationService </text>
</g>
<!-- PrismaService  -->
<g id="node3" class="node">
<title>PrismaService </title>
<polygon fill="#fb8072" stroke="black" points="269.36,-252 168.64,-252 168.64,-216 269.36,-216 269.36,-252"/>
<text text-anchor="middle" x="219" y="-229.8" font-family="Times,serif" font-size="14.00">PrismaService </text>
</g>
<!-- CommonModule -->
<g id="node4" class="node">
<title>CommonModule</title>
<polygon fill="#8dd3c7" stroke="black" points="403.67,-187 400.67,-191 379.67,-191 376.67,-187 292.33,-187 292.33,-151 403.67,-151 403.67,-187"/>
<text text-anchor="middle" x="348" y="-164.8" font-family="Times,serif" font-size="14.00">CommonModule</text>
</g>
<!-- CommonModule&#45;&gt;CloudinaryService  -->
<g id="edge1" class="edge">
<title>CommonModule&#45;&gt;CloudinaryService </title>
<path fill="none" stroke="black" stroke-dasharray="5,2" d="M403.75,-175C437.9,-175 475.1,-175 475.1,-175 475.1,-175 475.1,-205.98 475.1,-205.98"/>
<polygon fill="black" stroke="black" points="471.6,-205.98 475.1,-215.98 478.6,-205.98 471.6,-205.98"/>
</g>
<!-- CommonModule&#45;&gt;PaginationService  -->
<g id="edge2" class="edge">
<title>CommonModule&#45;&gt;PaginationService </title>
<path fill="none" stroke="black" stroke-dasharray="5,2" d="M348,-187.11C348,-187.11 348,-205.99 348,-205.99"/>
<polygon fill="black" stroke="black" points="344.5,-205.99 348,-215.99 351.5,-205.99 344.5,-205.99"/>
</g>
<!-- CommonModule&#45;&gt;PrismaService  -->
<g id="edge3" class="edge">
<title>CommonModule&#45;&gt;PrismaService </title>
<path fill="none" stroke="black" stroke-dasharray="5,2" d="M292.2,-175C258.66,-175 222.44,-175 222.44,-175 222.44,-175 222.44,-205.98 222.44,-205.98"/>
<polygon fill="black" stroke="black" points="218.94,-205.98 222.44,-215.98 225.94,-205.98 218.94,-205.98"/>
</g>
<!-- CloudinaryConfigService -->
<g id="node5" class="node">
<title>CloudinaryConfigService</title>
<ellipse fill="#fdb462" stroke="black" cx="652" cy="-104" rx="110.04" ry="18"/>
<text text-anchor="middle" x="652" y="-99.8" font-family="Times,serif" font-size="14.00">CloudinaryConfigService</text>
</g>
<!-- CloudinaryConfigService&#45;&gt;CommonModule -->
<g id="edge4" class="edge">
<title>CloudinaryConfigService&#45;&gt;CommonModule</title>
<path fill="none" stroke="black" d="M546.48,-109.44C546.48,-124.05 546.48,-163 546.48,-163 546.48,-163 413.82,-163 413.82,-163"/>
<polygon fill="black" stroke="black" points="413.82,-159.5 403.82,-163 413.82,-166.5 413.82,-159.5"/>
</g>
<!-- CloudinaryService -->
<g id="node6" class="node">
<title>CloudinaryService</title>
<ellipse fill="#fdb462" stroke="black" cx="440" cy="-104" rx="83.39" ry="18"/>
<text text-anchor="middle" x="440" y="-99.8" font-family="Times,serif" font-size="14.00">CloudinaryService</text>
</g>
<!-- CloudinaryService&#45;&gt;CommonModule -->
<g id="edge5" class="edge">
<title>CloudinaryService&#45;&gt;CommonModule</title>
<path fill="none" stroke="black" d="M380.2,-116.84C380.2,-116.84 380.2,-140.52 380.2,-140.52"/>
<polygon fill="black" stroke="black" points="376.7,-140.52 380.2,-150.52 383.7,-140.52 376.7,-140.52"/>
</g>
<!-- PaginationService -->
<g id="node7" class="node">
<title>PaginationService</title>
<ellipse fill="#fdb462" stroke="black" cx="257" cy="-104" rx="81.1" ry="18"/>
<text text-anchor="middle" x="257" y="-99.8" font-family="Times,serif" font-size="14.00">PaginationService</text>
</g>
<!-- PaginationService&#45;&gt;CommonModule -->
<g id="edge6" class="edge">
<title>PaginationService&#45;&gt;CommonModule</title>
<path fill="none" stroke="black" d="M315.23,-116.84C315.23,-116.84 315.23,-140.52 315.23,-140.52"/>
<polygon fill="black" stroke="black" points="311.73,-140.52 315.23,-150.52 318.73,-140.52 311.73,-140.52"/>
</g>
<!-- PrismaService -->
<g id="node8" class="node">
<title>PrismaService</title>
<ellipse fill="#fdb462" stroke="black" cx="91" cy="-104" rx="66.63" ry="18"/>
<text text-anchor="middle" x="91" y="-99.8" font-family="Times,serif" font-size="14.00">PrismaService</text>
</g>
<!-- PrismaService&#45;&gt;CommonModule -->
<g id="edge7" class="edge">
<title>PrismaService&#45;&gt;CommonModule</title>
<path fill="none" stroke="black" d="M91,-122.02C91,-139.37 91,-163 91,-163 91,-163 282.23,-163 282.23,-163"/>
<polygon fill="black" stroke="black" points="282.23,-166.5 292.23,-163 282.23,-159.5 282.23,-166.5"/>
</g>
</g>
</svg>
