<?xml version="1.0" encoding="UTF-8" standalone="no"?>
<!DOCTYPE svg PUBLIC "-//W3C//DTD SVG 1.1//EN"
 "http://www.w3.org/Graphics/SVG/1.1/DTD/svg11.dtd">
<!-- Generated by graphviz version 2.47.0 (20210316.0004)
 -->
<!-- Title: dependencies Pages: 1 -->
<svg width="772pt" height="211pt"
 viewBox="0.00 0.00 772.00 211.00" xmlns="http://www.w3.org/2000/svg" xmlns:xlink="http://www.w3.org/1999/xlink">
<g id="graph0" class="graph" transform="scale(1 1) rotate(0) translate(4 207)">
<title>dependencies</title>
<polygon fill="white" stroke="transparent" points="-4,4 -4,-207 768,-207 768,4 -4,4"/>
<text text-anchor="start" x="361.01" y="-42.4" font-family="Times-12" font-weight="bold" font-size="14.00">Legend</text>
<polygon fill="#ffffb3" stroke="transparent" points="148,-10 148,-30 168,-30 168,-10 148,-10"/>
<text text-anchor="start" x="171.63" y="-15.4" font-family="Times-12" font-size="14.00"> &#160;Declarations</text>
<polygon fill="#8dd3c7" stroke="transparent" points="261,-10 261,-30 281,-30 281,-10 261,-10"/>
<text text-anchor="start" x="284.73" y="-15.4" font-family="Times-12" font-size="14.00"> &#160;Module</text>
<polygon fill="#80b1d3" stroke="transparent" points="347,-10 347,-30 367,-30 367,-10 347,-10"/>
<text text-anchor="start" x="370.78" y="-15.4" font-family="Times-12" font-size="14.00"> &#160;Bootstrap</text>
<polygon fill="#fdb462" stroke="transparent" points="444,-10 444,-30 464,-30 464,-10 444,-10"/>
<text text-anchor="start" x="467.67" y="-15.4" font-family="Times-12" font-size="14.00"> &#160;Providers</text>
<polygon fill="#fb8072" stroke="transparent" points="540,-10 540,-30 560,-30 560,-10 540,-10"/>
<text text-anchor="start" x="563.73" y="-15.4" font-family="Times-12" font-size="14.00"> &#160;Exports</text>
<g id="clust1" class="cluster">
<title>cluster_AppModule</title>
<polygon fill="none" stroke="black" stroke-dasharray="1,5" points="8,-70 8,-195 756,-195 756,-70 8,-70"/>
</g>
<g id="clust6" class="cluster">
<title>cluster_AppModule_providers</title>
<polygon fill="none" stroke="black" points="618,-78 618,-130 748,-130 748,-78 618,-78"/>
</g>
<g id="clust3" class="cluster">
<title>cluster_AppModule_imports</title>
<polygon fill="none" stroke="black" points="16,-78 16,-130 610,-130 610,-78 16,-78"/>
</g>
<!-- CoinModule -->
<g id="node1" class="node">
<title>CoinModule</title>
<polygon fill="#8dd3c7" stroke="black" points="602.28,-122 599.28,-126 578.28,-126 575.28,-122 515.72,-122 515.72,-86 602.28,-86 602.28,-122"/>
<text text-anchor="middle" x="559" y="-99.8" font-family="Times,serif" font-size="14.00">CoinModule</text>
</g>
<!-- AppModule -->
<g id="node6" class="node">
<title>AppModule</title>
<polygon fill="#8dd3c7" stroke="black" points="414.66,-187 411.66,-191 390.66,-191 387.66,-187 331.34,-187 331.34,-151 414.66,-151 414.66,-187"/>
<text text-anchor="middle" x="373" y="-164.8" font-family="Times,serif" font-size="14.00">AppModule</text>
</g>
<!-- CoinModule&#45;&gt;AppModule -->
<g id="edge1" class="edge">
<title>CoinModule&#45;&gt;AppModule</title>
<path fill="none" stroke="black" d="M559,-122.02C559,-139.37 559,-163 559,-163 559,-163 424.74,-163 424.74,-163"/>
<polygon fill="black" stroke="black" points="424.74,-159.5 414.74,-163 424.74,-166.5 424.74,-159.5"/>
</g>
<!-- CommonModule -->
<g id="node2" class="node">
<title>CommonModule</title>
<polygon fill="#8dd3c7" stroke="black" points="497.67,-122 494.67,-126 473.67,-126 470.67,-122 386.33,-122 386.33,-86 497.67,-86 497.67,-122"/>
<text text-anchor="middle" x="442" y="-99.8" font-family="Times,serif" font-size="14.00">CommonModule</text>
</g>
<!-- CommonModule&#45;&gt;AppModule -->
<g id="edge2" class="edge">
<title>CommonModule&#45;&gt;AppModule</title>
<path fill="none" stroke="black" d="M400.5,-122.11C400.5,-122.11 400.5,-140.99 400.5,-140.99"/>
<polygon fill="black" stroke="black" points="397,-140.99 400.5,-150.99 404,-140.99 397,-140.99"/>
</g>
<!-- TransactionModule -->
<g id="node3" class="node">
<title>TransactionModule</title>
<polygon fill="#8dd3c7" stroke="black" points="367.63,-122 364.63,-126 343.63,-126 340.63,-122 242.37,-122 242.37,-86 367.63,-86 367.63,-122"/>
<text text-anchor="middle" x="305" y="-99.8" font-family="Times,serif" font-size="14.00">TransactionModule</text>
</g>
<!-- TransactionModule&#45;&gt;AppModule -->
<g id="edge3" class="edge">
<title>TransactionModule&#45;&gt;AppModule</title>
<path fill="none" stroke="black" d="M349.49,-122.11C349.49,-122.11 349.49,-140.99 349.49,-140.99"/>
<polygon fill="black" stroke="black" points="345.99,-140.99 349.49,-150.99 352.99,-140.99 345.99,-140.99"/>
</g>
<!-- UserModule -->
<g id="node4" class="node">
<title>UserModule</title>
<polygon fill="#8dd3c7" stroke="black" points="223.98,-122 220.98,-126 199.98,-126 196.98,-122 138.02,-122 138.02,-86 223.98,-86 223.98,-122"/>
<text text-anchor="middle" x="181" y="-99.8" font-family="Times,serif" font-size="14.00">UserModule</text>
</g>
<!-- UserModule&#45;&gt;AppModule -->
<g id="edge4" class="edge">
<title>UserModule&#45;&gt;AppModule</title>
<path fill="none" stroke="black" d="M181,-122.02C181,-139.37 181,-163 181,-163 181,-163 321.34,-163 321.34,-163"/>
<polygon fill="black" stroke="black" points="321.34,-166.5 331.34,-163 321.34,-159.5 321.34,-166.5"/>
</g>
<!-- WalletModule -->
<g id="node5" class="node">
<title>WalletModule</title>
<polygon fill="#8dd3c7" stroke="black" points="120.37,-122 117.37,-126 96.37,-126 93.37,-122 23.63,-122 23.63,-86 120.37,-86 120.37,-122"/>
<text text-anchor="middle" x="72" y="-99.8" font-family="Times,serif" font-size="14.00">WalletModule</text>
</g>
<!-- WalletModule&#45;&gt;AppModule -->
<g id="edge5" class="edge">
<title>WalletModule&#45;&gt;AppModule</title>
<path fill="none" stroke="black" d="M72,-122.28C72,-143.32 72,-175 72,-175 72,-175 321.15,-175 321.15,-175"/>
<polygon fill="black" stroke="black" points="321.15,-178.5 331.15,-175 321.15,-171.5 321.15,-178.5"/>
</g>
<!-- AppService -->
<g id="node7" class="node">
<title>AppService</title>
<ellipse fill="#fdb462" stroke="black" cx="683" cy="-104" rx="56.74" ry="18"/>
<text text-anchor="middle" x="683" y="-99.8" font-family="Times,serif" font-size="14.00">AppService</text>
</g>
<!-- AppService&#45;&gt;AppModule -->
<g id="edge6" class="edge">
<title>AppService&#45;&gt;AppModule</title>
<path fill="none" stroke="black" d="M683,-122.28C683,-143.32 683,-175 683,-175 683,-175 424.81,-175 424.81,-175"/>
<polygon fill="black" stroke="black" points="424.81,-171.5 414.81,-175 424.81,-178.5 424.81,-171.5"/>
</g>
</g>
</svg>
